# xmcd
#
# Track frame offsets:
# 150
# 18860
# 37798
# 56590
# 71620
# 88538
# 108463
# 126895
# 141893
# 158925
# 175320
# 188548
# 201963
# 219935
# 236098
# 254498
# 272085
# 290848
# 309785
# 324353
#
# Disc length: 4517 seconds
#
# Revision: 0
# Processed by: cddbd v1.4PL0 Copyright (c) Steve Scherf et al.
# Submitted via: Audion 3.0.2 (http://www.panic.com/audion/)
#
DISCID=1d11a314
DTITLE=Techno Dance Party II [CD1] - Techno Dance Party 2
DYEAR=1900
DGENRE=
TTITLE0=Chimo Bayo - Asi Me Gusta A Mi
TTITLE1=Pleasure Game - Le Seigneur Des Tenebres
TTITLE2=Human Ressource - Dominator
TTITLE3=2 Unlimited - Get Ready For This
TTITLE4=Anticapella - 2 231
TTITLE5=Brainwave - How Do You Feel
TTITLE6=Masterminds - E.M.F.
TTITLE7=Meng Syndicate - Sonar System
TTITLE8=Beltram - My Sound
TTITLE9=Phenomenia - Who Is Elvis
TTITLE10=Digital Excitation - Dream Party
TTITLE11=Set Up System - Music And Noise
TTITLE12=RJ's Rule - Rave This Nation
TTITLE13=Digital Orgasm - Moog Eruption
TTITLE14=Techno Groove Mach 4 - Techno Slam
TTITLE15=Space Trax - Deduction
TTITLE16=Gateway Experience - Twin Freaks
TTITLE17=The Prodigy - Android
TTITLE18=Mental Cube - "Q"
TTITLE19=Fun Lab - Waves
EXTD=
EXTT0=
EXTT1=
EXTT2=
EXTT3=
EXTT4=
EXTT5=
EXTT6=
EXTT7=
EXTT8=
EXTT9=
EXTT10=
EXTT11=
EXTT12=
EXTT13=
EXTT14=
EXTT15=
EXTT16=
EXTT17=
EXTT18=
EXTT19=
PLAYORDER=
